<svg width="18" height="16" viewBox="0 0 18 16" fill="none" xmlns="http://www.w3.org/2000/svg">
<path d="M10.0501 0.499979C5.80844 0.383312 2.33344 3.79165 2.33344 7.99998H0.841773C0.466773 7.99998 0.28344 8.44998 0.550107 8.70831L2.87511 11.0416C3.04177 11.2083 3.30011 11.2083 3.46677 11.0416L5.79177 8.70831C5.84936 8.64957 5.88827 8.57509 5.90359 8.49427C5.91892 8.41344 5.90998 8.32989 5.87789 8.25414C5.84581 8.17839 5.79203 8.11383 5.72331 8.0686C5.6546 8.02337 5.57404 7.9995 5.49177 7.99998H4.00011C4.00011 4.74998 6.65011 2.12498 9.91677 2.16665C13.0168 2.20831 15.6251 4.81665 15.6668 7.91665C15.7084 11.175 13.0834 13.8333 9.83344 13.8333C8.49177 13.8333 7.25011 13.375 6.26677 12.6C6.10716 12.4742 5.9069 12.4116 5.70408 12.4239C5.50126 12.4361 5.31003 12.5226 5.16677 12.6666C4.81677 13.0166 4.84177 13.6083 5.23344 13.9083C6.54271 14.9437 8.16425 15.5048 9.83344 15.5C14.0418 15.5 17.4501 12.025 17.3334 7.78331C17.2251 3.87498 13.9584 0.608312 10.0501 0.499979ZM9.62511 4.66665C9.28344 4.66665 9.00011 4.94998 9.00011 5.29165V8.35831C9.00011 8.64998 9.15844 8.92498 9.40844 9.07498L12.0084 10.6166C12.3084 10.7916 12.6918 10.6916 12.8668 10.4C13.0418 10.1 12.9418 9.71665 12.6501 9.54165L10.2501 8.11665V5.28331C10.2501 4.94998 9.96677 4.66665 9.62511 4.66665Z" fill="#5B70BC"/>
</svg>
